<?xml version="1.0" standalone="no"?>
<!DOCTYPE svg PUBLIC "-//W3C//DTD SVG 20010904//EN"
 "http://www.w3.org/TR/2001/REC-SVG-20010904/DTD/svg10.dtd">
<svg version="1.0" xmlns="http://www.w3.org/2000/svg"
 width="624.000000pt" height="306.000000pt" viewBox="0 0 624.000000 306.000000"
 preserveAspectRatio="xMidYMid meet">
<metadata>
Created by potrace 1.16, written by Peter Selinger 2001-2019
</metadata>
<g transform="translate(0.000000,306.000000) scale(0.100000,-0.100000)"
fill="#000000" stroke="none">
<path d="M3030 2323 c-35 -82 -96 -224 -136 -318 -319 -751 -365 -850 -410
-880 -11 -7 -40 -18 -62 -25 -25 -6 -42 -17 -42 -25 0 -13 33 -15 215 -15 175
0 215 3 215 14 0 8 -17 16 -45 19 -63 9 -101 31 -113 65 -12 36 14 122 82 267
l45 95 271 -2 272 -3 49 -114 c93 -212 95 -266 15 -295 -22 -8 -50 -16 -60
-18 -11 -2 -20 -7 -20 -13 -1 -6 96 -11 267 -13 223 -2 267 0 267 12 0 7 -14
16 -31 20 -116 23 -143 66 -319 501 -27 66 -102 246 -167 400 -66 154 -137
324 -158 378 -27 69 -43 97 -55 97 -12 0 -35 -42 -80 -147z m107 -358 c41 -99
92 -222 114 -272 21 -51 39 -95 39 -98 0 -3 -108 -5 -240 -5 -132 0 -240 3
-240 6 0 4 11 32 25 63 78 180 169 393 187 439 12 29 25 51 31 49 5 -1 43 -84
84 -182z"/>
<path d="M1130 2425 c0 -11 13 -15 53 -15 58 0 107 -24 129 -62 10 -18 14
-129 19 -473 4 -309 10 -467 19 -505 19 -82 62 -160 118 -212 89 -84 180 -116
352 -125 305 -16 496 97 556 328 14 53 18 140 23 504 6 416 7 442 26 474 25
43 78 71 132 71 32 0 43 4 43 15 0 13 -33 15 -240 15 -197 0 -240 -2 -240 -14
0 -10 18 -15 60 -18 71 -5 109 -29 127 -79 15 -44 17 -759 2 -879 -13 -109
-40 -169 -100 -225 -91 -85 -201 -120 -354 -113 -204 9 -298 110 -326 353 -6
53 -9 246 -7 470 3 356 4 382 23 412 24 41 70 63 129 63 34 0 46 4 46 15 0 13
-39 15 -295 15 -256 0 -295 -2 -295 -15z"/>
<path d="M3920 2425 c0 -11 13 -15 53 -15 58 0 107 -24 129 -62 10 -18 13
-142 13 -598 0 -541 -1 -578 -18 -604 -23 -35 -73 -56 -132 -56 -33 0 -45 -4
-45 -15 0 -13 64 -15 537 -13 l536 3 53 175 c59 192 58 190 45 190 -6 0 -29
-36 -52 -80 -47 -92 -99 -148 -167 -181 -44 -22 -61 -24 -273 -27 l-226 -4
-29 25 -29 25 0 570 c0 556 0 570 20 592 31 35 94 60 153 60 39 0 52 4 52 15
0 13 -41 15 -310 15 -269 0 -310 -2 -310 -15z"/>
</g>
</svg>
